<!-- icon666.com - MILLIONS vector ICONS FREE --><svg enable-background="new 0 0 100 100" viewBox="0 0 100 100" xmlns="http://www.w3.org/2000/svg"><g id="Layer_35"><g><path d="m94.7 82-11.2-70.4c-.8-4.4-3.4-6.6-7.9-6.6h-51.2c-4.5 0-7.1 2.2-7.8 6.6l-11.3 70.4s-.2 1.3-.2 1.9c0 6.1 5 11.1 11.1 11.1h67.5c6.1 0 11.1-5 11.1-11.1.1-.7-.1-1.9-.1-1.9zm-59.2-45.4c0-.8.7-1.5 1.5-1.5s1.5.7 1.5 1.5v5.4c0 2.3.9 4.1 2.6 5.1l7.4 4.4v-31.4l-3.3 3.3c-.6.6-1.5.6-2.1 0s-.6-1.5 0-2.1l5.9-5.9c.6-.6 1.5-.6 2.1 0l5.9 5.9c.6.6.6 1.5 0 2.1-.3.3-.7.4-1.1.4s-.8-.1-1.1-.4l-3.3-3.3v22.3l7.4-4.4c1.7-1 2.6-2.8 2.6-5.1v-5.4c0-.8.7-1.5 1.5-1.5s1.5.7 1.5 1.5v5.4c0 3.4-1.5 6.2-4 7.7l-8.9 5.3v17.9c0 .8-.7 1.5-1.5 1.5s-1.5-.7-1.5-1.5v-8.8l-8.9-5.3c-1.5-.9-4-3.1-4-7.7v-5.4zm48.3 55.4h-67.6c-4.5 0-8.1-3.6-8.1-8.1s3.6-8.1 8.1-8.1h67.5c4.5 0 8.1 3.6 8.1 8.1s-3.6 8.1-8 8.1z"></path><path d="m83.5 82.4h-6.3c-.8 0-1.5.7-1.5 1.5s.7 1.5 1.5 1.5h6.3c.8 0 1.5-.7 1.5-1.5s-.7-1.5-1.5-1.5z"></path><path d="m67.7 82.4h-6.3c-.8 0-1.5.7-1.5 1.5s.7 1.5 1.5 1.5h6.3c.8 0 1.5-.7 1.5-1.5s-.7-1.5-1.5-1.5z"></path><path d="m43.6 82.4h-27c-.8 0-1.5.7-1.5 1.5s.7 1.5 1.5 1.5h27c.8 0 1.5-.7 1.5-1.5s-.7-1.5-1.5-1.5z"></path></g></g></svg>